This is a mp4 of the webcast
Second to last IE concert with Matt Barlow on vocals

Original Announcement:
ICED EARTH's performance at this year's Ilosaarirock festival Joensuu, Finland will be streamed live later today (Saturday, July 16) at 7:00 p.m. local time / 12:00 noon EST / 9:00 a.m. PST at this location (courtesy of the Finnish broadcasting company YLE).

General
Format                           : MPEG-4
Format profile                   : Base Media
Codec ID                         : isom
File size                        : 278 MiB
Duration                         : 1h 15mn
Overall bit rate                 : 514 Kbps
Encoded date                     : UTC 2011-07-15 19:57:15
Tagged date                      : UTC 2011-07-16 19:57:30

Video
ID                               : 1
Format                           : AVC
Format/Info                      : Advanced Video Codec
Format profile                   : High@L3.1
Format settings, CABAC           : Yes
Format settings, ReFrames        : 4 frames
Codec ID                         : avc1
Codec ID/Info                    : Advanced Video Coding
Duration                         : 1h 15mn
Bit rate                         : 402 Kbps
Maximum bit rate                 : 961 Kbps
Width                            : 512 pixels
Height                           : 288 pixels
Display aspect ratio             : 16:9
Frame rate mode                  : Constant
Frame rate                       : 25.000 fps
Color space                      : YUV
Chroma subsampling               : 4:2:0
Bit depth                        : 8 bits
Scan type                        : Progressive
Bits/(Pixel*Frame)               : 0.109
Stream size                      : 217 MiB (78%)
Writing library                  : Vimeo Encoder
Encoded date                     : UTC 2011-07-15 19:57:15
Tagged date                      : UTC 2011-07-15 19:57:22

Audio
ID                               : 2
Format                           : AAC
Format/Info                      : Advanced Audio Codec
Format profile                   : LC
Codec ID                         : 40
Duration                         : 1h 15mn
Bit rate mode                    : Variable
Bit rate                         : 110 Kbps
Maximum bit rate                 : 148 Kbps
Channel(s)                       : 2 channels
Channel positions                : Front: L R
Sampling rate                    : 44.1 KHz
Compression mode                 : Lossy
Stream size                      : 59.2 MiB (21%)
Encoded date                     : UTC 2011-07-15 19:57:20
Tagged date                      : UTC 2011-07-15 19:57:22


